Coordinates
version=1
nRows=13
nColumns=40
inDegrees=yes

Units are S.I. units (second, meters, Newtons, ...)
Angles are in degrees.

endheader
time	pelvis_tilt	pelvis_list	pelvis_rotation	pelvis_tx	pelvis_ty	pelvis_tz	hip_flexion_r	hip_adduction_r	hip_rotation_r	knee_angle_r	knee_angle_r_beta	ankle_angle_r	subtalar_angle_r	mtp_angle_r	hip_flexion_l	hip_adduction_l	hip_rotation_l	knee_angle_l	knee_angle_l_beta	ankle_angle_l	subtalar_angle_l	mtp_angle_l	lumbar_extension	lumbar_bending	lumbar_rotation	arm_flex_r	arm_add_r	arm_rot_r	elbow_flex_r	pro_sup_r	wrist_flex_r	wrist_dev_r	arm_flex_l	arm_add_l	arm_rot_l	elbow_flex_l	pro_sup_l	wrist_flex_l	wrist_dev_l
      0.00000000	      1.54323449	     -6.19884434	      5.39187962	     -1.17995205	      0.89371341	      0.98981408	      9.21212647	      7.34299815	    -20.39946613	    -20.12635034	     -0.35127108	      6.57587779	     -0.63763593	     -2.20837254	      5.04009573	     12.07022019	      9.04959014	    -53.34534546	     -0.93105192	     -2.39143468	      2.84877185	     -6.97256134	     -7.46547264	      9.50264168	     -2.62474203	      9.00909972	    -11.78930856	     14.13955246	     15.26555461	     89.95437384	      0.00000000	      0.00000000	      7.17834345	      7.63852104	    -16.48184795	     14.15544199	     89.95437384	      0.00000000	      0.00000000
      0.01000000	      1.98466278	     -6.05156931	      5.45339949	     -1.17307578	      0.89441171	      0.99042531	      8.20142274	      7.38716984	    -20.17206558	    -20.10431723	     -0.35088653	      7.13051126	     -0.62536230	     -2.29532140	      5.70458233	     12.02821017	      8.85360482	    -54.26695341	     -0.94713701	     -1.25287774	      3.45987308	     -7.21632455	     -7.91989665	      9.31878364	     -2.15349878	      9.28074491	    -11.93130540	     14.14237972	     15.20023339	     89.95437384	      0.00000000	      0.00000000	      7.06897203	      7.74065607	    -16.29983946	     14.08834833	     89.95437384	      0.00000000	      0.00000000
      0.02000000	      2.36368465	     -5.82701418	      5.69522853	     -1.16664277	      0.89512342	      0.99076580	      7.20513609	      7.34366261	    -20.06533647	    -19.88658309	     -0.34708635	      7.49493259	     -0.80933558	     -2.34449257	      6.54776812	     11.63355133	      8.17002525	    -54.99495018	     -0.95984295	     -0.19581688	      4.67279594	     -7.58041255	     -8.36114314	      9.05718196	     -1.86569296	      9.51624138	    -12.08762162	     14.16753356	     15.34959606	     89.95437384	      0.00000000	      0.00000000	      6.95294192	      7.86787219	    -15.88645776	     14.24413589	     89.95437384	      0.00000000	      0.00000000
      0.03000000	      2.55101354	     -5.53610921	      5.67640926	     -1.16021830	      0.89557309	      0.99141846	      6.58358078	      7.13743412	    -19.99316973	    -20.05043742	     -0.34994615	      7.59346639	     -0.87334921	     -2.32620062	      7.53076606	     11.28651301	      7.96444287	    -55.53520861	     -0.96927224	     -0.02992540	      4.61312496	     -7.55768039	     -8.57701909	      8.66014545	     -1.24113571	      9.66479451	    -12.24976752	     14.16056436	     15.39031963	     89.95437384	      0.00000000	      0.00000000	      6.85220097	      8.00245440	    -15.76497903	     14.46449665	     89.95437384	      0.00000000	      0.00000000
      0.04000000	      2.79671529	     -5.33156028	      5.96814879	     -1.15388109	      0.89612557	      0.99165467	      5.73709102	      7.13313345	    -19.70901785	    -19.85208260	     -0.34648420	      8.32256854	     -1.02500138	     -2.39095861	      8.52870434	     10.78209695	      7.15996004	    -55.89842010	     -0.97561148	      1.09121760	      5.03062950	     -7.85595253	     -8.81515123	      8.41490272	     -1.13609244	     10.05955985	    -12.27929459	     14.22554892	     15.15154632	     89.95437384	      0.00000000	      0.00000000	      6.74086141	      8.13761947	    -15.61121039	     14.49395678	     89.95437384	      0.00000000	      0.00000000
      0.05000000	      2.91933977	     -5.02998519	      6.07407977	     -1.14751148	      0.89649827	      0.99209512	      5.09513911	      6.94586282	    -19.55934511	    -19.82401692	     -0.34599437	      8.64585791	     -1.19047014	     -2.38568883	      9.58909395	     10.19926964	      6.65960296	    -56.07621130	     -0.97871452	      1.68382611	      5.01781706	     -8.02793320	     -8.95766910	      8.02038022	     -0.78391188	     10.28221247	    -12.35820581	     14.22253162	     15.13739200	     89.95437384	      0.00000000	      0.00000000	      6.58247772	      8.30595138	    -15.30660991	     14.81914203	     89.95437384	      0.00000000	      0.00000000
      0.06000000	      2.99255693	     -4.75043592	      6.16106714	     -1.14123066	      0.89682106	      0.99247809	      4.53480668	      6.78358640	    -19.34568187	    -19.81754468	     -0.34588140	      8.96889294	     -1.38659926	     -2.37839160	     10.64615071	      9.55082370	      6.09984418	    -55.99386590	     -0.97727732	      2.35837289	      4.84785178	     -8.21642851	     -9.05194765	      7.65386976	     -0.44688919	     10.51741257	    -12.42724433	     14.20611961	     15.09662666	     89.95437384	      0.00000000	      0.00000000	      6.40186755	      8.45907448	    -14.95690219	     15.19409385	     89.95437384	      0.00000000	      0.00000000
      0.07000000	      3.02431264	     -4.54762336	      6.08975181	     -1.13502666	      0.89706515	      0.99298424	      4.10425841	      6.65193252	    -19.23136400	    -19.93640525	     -0.34795591	      9.09140610	     -1.49081888	     -2.35206405	     11.71895093	      8.98087004	      5.68675688	    -55.75278210	     -0.97306961	      2.71240937	      4.58213891	     -8.24178197	     -9.13298442	      7.36581379	      0.12651253	     10.65826664	    -12.58830161	     14.17106717	     15.17682016	     89.95437384	      0.00000000	      0.00000000	      6.22161133	      8.57050647	    -14.71219336	     15.66325637	     89.95437384	      0.00000000	      0.00000000
      0.08000000	      3.06931661	     -4.21971108	      6.20008784	     -1.12859135	      0.89728583	      0.99336490	      3.49215220	      6.46998681	    -18.93368083	    -19.82343977	     -0.34598429	      9.61006204	     -1.71144310	     -2.36464249	     12.66782056	      8.22459966	      5.13745107	    -55.22928726	     -0.96393291	      3.82984097	      4.11086418	     -8.54656515	     -9.16385268	      6.92434977	      0.30379918	     10.93602217	    -12.55103513	     14.16599084	     15.05794505	     89.95437384	      0.00000000	      0.00000000	      5.97501549	      8.76171071	    -14.28943705	     16.05012418	     89.95437384	      0.00000000	      0.00000000
      0.09000000	      3.15043969	     -3.95393570	      6.24728798	     -1.12238110	      0.89745750	      0.99371359	      2.95345793	      6.32128386	    -18.67543642	    -19.87629929	     -0.34690687	      9.99289885	     -1.95853707	     -2.35480242	     13.58409842	      7.55322086	      4.69720174	    -54.57658537	     -0.95254111	      4.52634726	      3.62331802	     -8.80386492	     -9.29744159	      6.56802908	      0.54964015	     11.19699744	    -12.57270309	     14.11620349	     15.09241808	     89.95437384	      0.00000000	      0.00000000	      5.65509215	      8.92150649	    -13.95635040	     16.56419857	     89.95437384	      0.00000000	      0.00000000
      0.10000000	      3.14937418	     -3.78085367	      6.19698828	     -1.11607461	      0.89741248	      0.99425265	      2.51726214	      6.23156356	    -18.59723744	    -19.93670233	     -0.34796110	     10.19168643	     -2.10170535	     -2.33092855	     14.57878523	      7.05336951	      4.46118047	    -53.82944552	     -0.93950106	      4.95663271	      3.28001232	     -8.87587669	     -9.32160624	      6.28164905	      0.98831557	     11.34895844	    -12.63881687	     14.07982015	     15.17597605	     89.95437384	      0.00000000	      0.00000000	      5.42083112	      9.04433344	    -13.75511177	     17.03866216	     89.95437384	      0.00000000	      0.00000000
      0.11000000	      3.73307775	     -3.36400109	      6.19987083	     -1.10947006	      0.89832353	      0.99464223	      1.17955361	      6.06029820	    -18.09018507	    -19.59010392	     -0.34191181	     10.45066810	     -2.56514212	     -2.29304282	     14.63024012	      6.37636223	      4.34055501	    -52.59898883	     -0.91802554	      5.50503977	      2.66405130	    -10.34396066	    -10.04702476	      5.78751363	      1.20631902	     11.70740777	    -12.54659095	     13.85608082	     15.19113311	     89.95437384	      0.00000000	      0.00000000	      5.16429179	      9.13779709	    -12.53035620	     17.64615779	     89.95437384	      0.00000000	      0.00000000
      0.12000000	      3.82222441	     -3.11692555	      6.12576565	     -1.10317489	      0.89827584	      0.99514258	      0.59080421	      5.90202451	    -17.90732604	    -19.58084588	     -0.34175023	     10.85395625	     -2.65673668	     -2.32503436	     15.39084764	      5.84372304	      4.28857735	    -51.57918335	     -0.90022657	      5.95676408	      2.60508690	    -11.00271260	    -10.20203085	      5.42123575	      1.57034387	     11.90000219	    -12.55499593	     13.83604761	     15.32112520	     89.95437384	      0.00000000	      0.00000000	      4.90855811	      9.25929730	    -12.11838908	     18.20497951	     89.95437384	      0.00000000	      0.00000000
